<svg width="950" height="950" viewBox="0 0 251.4 251.4" xmlns="http://www.w3.org/2000/svg"><path d="M43 178c-2 1-6 4-9 4a55 55 0 01-28 3H5v1c1 4 3 8 7 12s9 7 15 8l8-1c5-1 8-4 11-8l9-19M55 178l-1 9-1 10c-1 7 2 13 7 16 4 4 9 6 15 6 4 0 8-1 11-3 5-2 7-5 9-10v-1l2-9 1-8a202 202 0 013 21c2 8 12 14 25 15h8c8-2 14-5 17-10l3-5a192 192 0 000-22l3 10 2 11c1 3 4 6 6 7 6 4 16 4 24 1 6-3 10-7 11-11l1-4-2-10-1-7 3 7a86 86 0 005 8c2 4 5 7 9 9l6 2c5 0 11-2 16-5 5-4 8-8 9-13l-1-7h-2l-7 2-11-1c-6-1-13-4-18-8l-2-1-10-11-2-2-7-9-1-2v2c0 3-1 7-3 9-4 10-13 15-25 15l-7-2-7-4-4-2c-2 1-3 2-4 6l-2 1h-1v-38h1c2 0 2 0 2 3l1 4c2 11 6 19 11 24 4 4 8 5 13 5 4-1 7-3 9-7 2-3 2-8 2-12-1-11-6-20-20-36-8-8-13-14-16-20-2-6-3-9-3-15-1-10 2-18 8-24 4-4 9-6 15-6 5 0 8 1 14 4l4 2h1V33l-1-1-3-3c-3-2-9-2-12-1-2 1-3 2-4 6l-6 12c-4 4-10 7-18 8l-11-2-7-3c-4-3-7-8-9-14-2-4-3-6-7-7h-9l-6 4v30c1 1 2 0 5-2a23 23 0 0129 2c6 6 9 14 8 24 0 6-1 9-4 15-2 6-7 12-15 20-14 16-19 25-20 36v9l3 6c4 4 10 5 15 3s10-8 13-15l5-17 1-3h2v38h-2l-1-1c-1-4-2-5-4-6l-5 2-6 4-7 2c-11 0-19-4-24-11-3-5-4-9-4-14v-3l-2 3-4 5-2 2M62 161l-7 17"/><path d="M125 229c-12-1-23-6-27-14l-1-1-1 1a25 25 0 01-21 9l-6-1c-6-1-11-3-14-7-4-4-6-7-7-12v-1l-1 1-7 5c-8 4-19 2-29-5-5-4-9-9-11-15a18 18 0 011-10h3a54 54 0 0026-1h2l7-3 1-1a76 76 0 0013-10l3-3 6-8 2-3 9-14a65 65 0 018-15 22 22 0 012-2l1-2 3-2a179 179 0 0114-17c5-6 7-11 8-17l1-6c0-5 0-6-2-9-2-4-5-7-9-7l-6 2c-3 1-6 5-9 9l-5 19v2h-4V61l1-30c0-2 2-3 3-4 3-4 10-5 15-4s8 2 11 5l2 5c3 6 6 10 9 12a24 24 0 0015 3c4 0 7-1 9-3 4-2 7-6 9-13l2-4 4-4c4-2 13-2 18 0a16 16 0 016 7v60h-3v-2l-2-10c-2-7-5-12-9-16l-3-2-6-2c-4 0-8 3-10 7l-1 9v6c2 8 6 14 18 27a301 301 0 0114 19l6 11a103 103 0 0011 19l7 9 5 5 8 6 3 1 9 3 6 1a25 25 0 006-1 25 25 0 008-3h2l2 6 1 9c-2 6-6 12-12 17-8 5-19 6-27 3l-6-5-1-1v1c-3 7-12 13-22 15h-12c-5-1-9-3-12-7l-2-1c-2 4-5 7-9 9-6 4-15 5-23 5z"/></svg>