<svg width="1940" height="1100" viewBox="0 0 513.292 291.042" xmlns="http://www.w3.org/2000/svg"><path d="M283.66 248.773c-12.29-.83-22.837-6.059-27.173-13.47a53.044 53.044 0 00-.84-1.408c-.037-.048-.294.206-.57.566-3.31 4.31-8.36 7.301-14.67 8.69-1.588.35-2.475.411-6.186.424-3.782.01-4.596-.039-6.414-.408-5.938-1.204-10.726-3.668-14.51-7.464-3.55-3.56-5.359-6.933-6.56-12.227l-.12-.525-1.201 1.22c-1.7 1.725-4.01 3.38-6.215 4.453-8.522 4.145-19.903 2.41-29.103-4.436-5.58-4.153-9.447-9.46-10.864-14.908-.684-2.631-.691-5.774-.022-8.505.263-1.069.508-1.971.544-2.006.036-.034 1.257.173 2.714.46 4.548.894 7.534 1.197 11.76 1.194 5.41-.006 9.94-.669 14.41-2.111l1.694-.547-12.666-.02-12.667-.019v-3.013h7.911V80.759h-7.911v-3.014h55.563v26.558h-2.927l-.424-2.64c-1.7-10.575-4.952-16.68-10.287-19.314-2.733-1.349-3.362-1.435-11.271-1.538l-6.922-.09v51.458h4.867c5.474 0 6.734-.193 8.94-1.362 1.525-.807 3.624-2.814 4.515-4.316 1.284-2.163 1.505-3.168 1.628-7.413l.11-3.767h3.013l.048 19.353.048 19.353H208.887v-2.083c0-3.702-.665-6.813-2.07-9.69-1.148-2.35-2.42-3.921-4.082-5.043-2.313-1.561-2.969-1.694-8.87-1.79l-5.132-.084V194.71h8.534l1.242-.687c1.763-.976 5.622-3.625 7.733-5.31.989-.787 3.334-2.96 5.213-4.828l3.416-3.395.489-1.507c.743-2.292 1.73-6.293 2.275-9.23.27-1.45.532-2.827.583-3.06.087-.393.194-.424 1.498-.424h1.404l.052 3.142.052 3.142 1.789-2.622c3.722-5.454 7.83-12.248 8.649-14.303 1.32-3.314 3.86-7.932 6.322-11.49a75.293 75.293 0 002.083-3.202c.5-.828 1-1.602 1.11-1.719a6.5 6.5 0 00.482-.626c.463-.678 1.246-1.515 1.43-1.529.094-.006 1.083-1.13 2.196-2.495a178.487 178.487 0 014.297-5.026c5.552-6.216 7.883-8.912 9.733-11.259 5.153-6.54 7.675-11.391 8.931-17.181.378-1.741.429-2.497.425-6.31-.006-4.868-.197-5.996-1.498-8.742-2.184-4.609-5.498-6.985-9.74-6.985-2.186 0-3.518.33-5.747 1.423-2.987 1.466-6.175 4.891-8.472 9.105-2.47 4.531-4.823 12.425-5.726 19.213l-.229 1.713h-3.189l.139-29.764c.123-26.538.171-29.83.436-30.372.602-1.23 1.839-2.898 2.993-4.037 3.067-3.028 10.033-4.75 15.51-3.835 5.059.845 8.046 2.313 10.142 4.985 1.365 1.74 1.95 2.809 2.944 5.388 2.35 6.09 5.064 10.11 8.21 12.163 2.613 1.704 6.467 2.904 10.611 3.303 2.069.199 2.487.183 4.539-.174 3.852-.67 7.16-1.79 9.653-3.27 3.492-2.073 6.44-6.462 8.89-13.235.521-1.444 1.225-3.09 1.562-3.658.864-1.454 2.644-3.313 3.787-3.955 4.566-2.567 13.248-2.507 18.086.124 1.417.77 3.391 2.724 4.638 4.588.622.93 1.13 1.77 1.13 1.866 0 .097.11.176.242.176.134 0 .248.148.254.33.006.18.08 13.615.163 29.853l.15 29.524h-3.19l-.228-1.714c-.366-2.75-1.32-7.2-2.195-10.247-2.002-6.964-4.707-11.907-8.503-15.536-1.407-1.346-2.1-1.848-3.5-2.534-2.23-1.094-3.56-1.424-5.746-1.424-4.243 0-7.557 2.377-9.74 6.986-1.302 2.746-1.495 3.874-1.5 8.741-.002 3.814.048 4.57.425 6.31 1.734 7.992 5.705 14.154 17.419 27.028 2.102 2.31 6.973 8.023 8.74 10.25 1.143 1.442 4.55 6.353 5.892 8.493 2.207 3.523 4.051 7.27 5.281 10.734.98 2.76 5.015 9.756 9.179 15.915 1.19 1.761 2.321 3.403 2.513 3.649.34.435.35-.172.398-24.391.047-23.567.067-24.873.392-25.526.437-.879 1.481-1.923 2.36-2.36.637-.317 1.487-.346 11.378-.394 10.594-.051 10.7-.048 11.636.355 1.14.49 2.468 1.897 2.783 2.948.16.532.224 3.312.224 9.625v8.878h-6.404v-16.198h-16.01v27.734l-.002 27.735 2.633 2.59 2.633 2.59h10.748v-17.706h6.404v9.631c0 6.896-.064 9.844-.224 10.379-.276.922-1.6 2.426-2.551 2.899-.57.283-1.289.371-3.63.447l-2.919.094 2.731 1.352c3.09 1.53 5.856 2.498 8.921 3.12 1.792.363 2.688.425 6.147.425 2.672 0 4.274-.077 4.71-.227.362-.125 1.065-.272 1.562-.327 1.653-.182 6.185-1.494 6.316-1.828.035-.088.164-.16.288-.16.124 0 .858-.315 1.632-.698.774-.384 1.476-.701 1.56-.706.317-.02 1.899 4.039 2.516 6.458.445 1.745.542 6.588.171 8.6-1.248 6.776-5.388 12.826-11.684 17.074-8.422 5.682-18.597 6.757-26.565 2.807-2.57-1.275-3.906-2.228-5.95-4.246l-1.431-1.412-.5 1.27c-2.757 7.018-11.398 12.732-21.9 14.483-2.847.475-8.646.471-11.279-.006-5.332-.967-9.533-3.056-12.714-6.32l-1.6-1.643-.358.748c-1.541 3.225-5.01 6.714-8.911 8.962-5.83 3.358-14.596 5.102-22.848 4.545zm9.043-5.396c8.083-1.173 14.316-4.465 17.426-9.205.987-1.504 1.897-3.985 2.142-5.839.11-.828.287-5.236.394-9.794.193-8.2.347-11.867.492-11.722.041.04 1.097 4.595 2.346 10.121 1.249 5.526 2.432 10.508 2.63 11.07.9 2.564 3.358 5.44 5.974 6.995 5.918 3.515 15.335 3.744 23.312.565 6.036-2.405 10.23-6.337 11.59-10.867.362-1.209.4-1.68.321-3.955-.077-2.219-.28-3.55-1.442-9.432-.743-3.767-1.326-6.926-1.294-7.021.032-.095 1.625 2.794 3.54 6.42 1.916 3.626 3.57 6.595 3.678 6.597.106.002.446.535.753 1.182 2.012 4.24 5.215 7.569 9.034 9.389 2.153 1.026 3.406 1.382 5.924 1.687 5.144.622 11.487-1.322 16.409-5.03 4.431-3.338 7.345-7.705 8.378-12.556.528-2.484.193-7.609-.493-7.543-.148.017-1.025.249-1.948.52-2.16.637-4.807 1.173-7.154 1.45-2.58.303-8.302.11-10.85-.365-6.435-1.2-12.979-4.206-18.553-8.52l-1.318-1.022-3.58-.093c-3.945-.104-4.457-.233-5.643-1.42-1.191-1.19-1.319-1.7-1.384-5.532l-.06-3.467-1.933-2.466c-2.178-2.775-5.023-6.757-6.54-9.15l-1.014-1.6-.142 1.6c-.315 3.559-1.196 7-2.494 9.744-4.619 9.766-13.57 14.906-25.259 14.502-3.344-.115-4.916-.486-7.727-1.824-2.163-1.029-3.527-1.909-6.097-3.933-2.403-1.893-3.095-2.193-4.42-1.918-2.349.488-3.416 2-4.153 5.887-.097.51-.12.518-1.507.518h-1.41V159.87h1.41c1.62 0 1.447-.244 1.801 2.543.119.932.425 2.797.681 4.143 2.098 11.035 5.73 18.82 11.299 24.218 4.042 3.92 8.001 5.455 12.591 4.884 4.554-.567 7.703-2.818 9.634-6.888 1.498-3.158 2.134-7.486 1.754-11.949-.931-10.946-6.268-20.231-20.407-35.503-7.691-8.308-12.456-14.727-15.379-20.719-2.628-5.387-3.542-8.927-3.703-14.332-.313-10.507 2.412-18.51 8.18-24.02 4.33-4.136 9.495-6.184 15.683-6.219 4.552-.027 7.928 1.043 13.132 4.154 2.741 1.64 3.986 2.145 4.872 1.979l.643-.12V52.944l-.721-1.112c-.995-1.533-2.387-2.866-3.568-3.414-3.186-1.478-9.047-1.537-12.04-.121-1.64.776-2.413 1.943-3.73 5.625-1.703 4.766-3.856 8.693-6.363 11.607-3.51 4.078-9.545 6.823-17.358 7.894-2.79.382-7.158-.103-11.124-1.236-2.293-.655-5.92-2.452-7.595-3.762-3.322-2.6-6.542-7.509-8.71-13.279-1.717-4.57-3.314-6.182-7.07-7.137-3.446-.876-5.432-.88-9.065-.021-2.642.625-4.062 1.541-5.578 3.595l-.5.677v29.776l.644.12c.886.167 2.13-.338 4.872-1.978 5.203-3.111 8.58-4.18 13.131-4.154 6.189.035 11.354 2.083 15.683 6.218 5.768 5.511 8.494 13.514 8.18 24.02-.16 5.406-1.075 8.946-3.703 14.333-2.922 5.992-7.687 12.411-15.378 20.719-14.14 15.272-19.476 24.557-20.408 35.503-.237 2.785-.017 6.208.564 8.64.497 2.093 1.76 4.728 2.952 6.157 3.423 4.105 9.883 5.341 15.233 2.915 4.712-2.136 9.595-7.819 12.614-14.679 2.015-4.578 3.844-11.52 4.596-17.441.354-2.786.182-2.543 1.802-2.543h1.409V197.348h-1.41c-1.387 0-1.41-.007-1.506-.518-.738-3.887-1.805-5.4-4.154-5.887-1.325-.275-2.016.024-4.42 1.918-2.57 2.024-3.934 2.904-6.096 3.933-2.812 1.338-4.384 1.709-7.728 1.824-10.266.355-18.37-3.514-23.378-11.158-2.712-4.14-4.121-8.592-4.362-13.784l-.116-2.483-1.943 2.766a131.301 131.301 0 01-3.645 4.915l-1.702 2.15v16.701h-3.673c-2.02 0-3.672.057-3.672.127s-.515 4.032-1.144 8.805c-.629 4.773-1.19 9.484-1.246 10.468-.363 6.302 2.251 12.502 6.821 16.178 4.408 3.546 9.627 5.294 15.808 5.294 4.151 0 7.707-.77 10.86-2.353 4.574-2.295 7.277-5.507 8.483-10.078.232-.88.476-1.644.542-1.696.067-.051.745-3.926 1.508-8.61.763-4.684 1.434-8.47 1.49-8.413.057.056.46 3.888.896 8.516 1.045 11.093 1.125 11.768 1.584 13.306 2.365 7.934 12.148 13.596 25.028 14.484 1.791.123 6.229-.078 8.288-.377zm-99.105-18.14c4.675-1.16 8.553-4.18 11.4-8.879.748-1.233 8.41-18.072 8.41-18.482 0-.082-2.501-.15-5.56-.15h-5.56l-.789.499c-1.595 1.007-5.96 3.072-8.478 4.01-4.066 1.515-8.23 2.489-13.044 3.052-3.868.453-11.352.202-15.603-.523l-.723-.123.126 1.11c.477 4.201 2.67 8.153 6.634 11.953 4.295 4.118 9.537 6.796 15.31 7.822 1.982.352 5.867.21 7.877-.289zm-48.372-26.861c-2.15-.462-4.218-1.636-5.93-3.368-2.213-2.238-3.605-4.849-4.532-8.505-1.06-4.177-1.072-4.44-1.211-25.41-.135-20.376-.117-19.985-1.016-21.983-.984-2.186-2.362-3.416-4.604-4.108-1.066-.33-1.756-.372-5.988-.372h-4.783v60.083h8.1v3.014H93.43v-3.014h7.911V80.762H93.43v-3.014h17.767c18.735 0 20.502.065 23.628.857 1.88.476 4.737 1.74 6.182 2.735 2.18 1.5 4.394 3.974 5.97 6.673 2.903 4.968 4.275 12.784 3.72 21.183-.575 8.707-2.378 13.847-6.16 17.564-1.73 1.7-2.986 2.606-5.137 3.707-1.676.858-4.375 1.87-5.804 2.178-1.132.243-.626.478 1.036.481 7.053.017 12.225 4.977 14.228 13.652.379 1.64.395 2.335.505 21.378.104 17.993.142 19.767.44 20.662.372 1.113 1.056 2.013 1.838 2.417 1.071.554 2.896.218 3.918-.722.58-.533 1.458-2.372 1.744-3.653.25-1.118.214-1.104 1.979-.778 1.427.263 1.411.201.731 2.91-1.287 5.126-4.113 8.352-8.209 9.37-1.522.377-4.852.385-6.58.016zm-17.275-67.553c2.324-1.089 4.107-3.235 5.135-6.18l.557-1.597.058-14.785c.037-9.414-.012-15.403-.138-16.485-.75-6.5-3.424-10.196-7.831-10.82-.725-.103-2.95-.188-4.944-.19l-3.626-.002v50.689l4.85-.06c4.823-.058 4.856-.06 5.94-.568zM24.495 196.22v-1.507h7.91V80.762h-7.91v-3.014h16.178c9.724 0 16.956.078 18.128.195 8.79.875 14.858 5.74 18.515 14.845 3.125 7.781 5.014 18.884 5.759 33.837.253 5.095.252 21.004-.001 25.94-.524 10.165-1.398 17-2.919 22.845-2.162 8.308-5.604 14.287-10.254 17.814-1.633 1.238-4.965 2.875-7.076 3.475-3.539 1.006-3.949 1.025-21.802 1.027H24.496zm32.66-1.879c1.947-.498 3.458-1.335 4.77-2.643 1.397-1.391 2.214-2.77 2.992-5.045 1.392-4.075 1.297-.338 1.297-50.987 0-42.814-.02-45.466-.334-46.692-1.003-3.912-3.66-6.767-7.215-7.757-.841-.234-2.261-.334-5.777-.406l-4.661-.095v113.997h3.736c3.105 0 3.983-.063 5.192-.372zm376.714 1.917c-2.858-.988-4.868-3.193-5.65-6.196-.237-.911-.28-3.357-.28-15.785 0-16.038-.018-15.815 1.087-17.879.67-1.258 2.547-3.141 3.72-3.735 2.016-1.021 2.515-1.082 8.882-1.082h5.898V124.46h6.028v71.949h-6.028v-.565c0-.34-.098-.565-.246-.565-.136 0-2.253.297-4.705.66-5.005.74-7.253.822-8.706.32zm10.802-5.435l2.855-.124V157l-4.944.082c-4.63.076-5.006.108-5.914.508-1.171.515-1.606.953-2.176 2.188l-.433.94V187.461l.496 1.056c.508 1.084 1.315 1.846 2.33 2.2.668.235 3.815.277 7.786.105zm-49.024 5.308c-1.06-.383-1.626-.854-2.271-1.892l-.565-.909-.05-18.91c-.034-12.373.016-19.157.14-19.622.278-1.032 1.198-2.201 2.12-2.694l.803-.429h9.7c9.687 0 9.701.001 10.49.422.898.48 1.68 1.416 2.05 2.45.371 1.043.371 37.852 0 38.895-.37 1.035-1.152 1.97-2.05 2.45-.785.42-.852.422-10.207.464-7.75.035-9.55-.006-10.16-.225zm16.658-22.136v-16.952h-13.561V190.946h13.561zm54.056 22.024c-1.056-.483-1.617-.999-2.137-1.965l-.406-.753v-19.306c0-18.487.017-19.334.352-19.965.494-.926 1.036-1.48 1.909-1.95.742-.399.89-.405 10.17-.405 9.282 0 9.429.006 10.171.406.873.47 1.415 1.023 1.909 1.949.327.613.355 1.299.406 9.875l.054 9.216-.99 1.002-.989 1.002h-17.058v16.198h13.184v-8.288H488.797l-.058 5.133c-.052 4.58-.096 5.203-.41 5.792-.494.926-1.035 1.479-1.908 1.949-.739.397-.94.406-9.983.452-8.97.045-9.253.035-10.077-.342zm16.575-32.572v-6.78H469.75v13.56H482.936z" fill="#2094f3"/></svg>